<svg width="1006" height="77" viewBox="0 0 1006 77" fill="none" xmlns="http://www.w3.org/2000/svg">
<mask id="path-1-outside-1_85826_554" maskUnits="userSpaceOnUse" x="0" y="0" width="1006" height="77" fill="black">
<rect fill="white" width="1006" height="77"/>
<path d="M21.952 46.656L16.576 72H4L18.208 4.8H42.208C45.024 4.8 47.552 5.248 49.792 6.144C52.096 7.04 54.048 8.288 55.648 9.888C57.248 11.488 58.464 13.376 59.296 15.552C60.192 17.728 60.64 20.096 60.64 22.656C60.64 26.24 60.032 29.504 58.816 32.448C57.6 35.392 55.872 37.92 53.632 40.032C51.392 42.144 48.704 43.776 45.568 44.928C42.432 46.08 38.944 46.656 35.104 46.656H21.952ZM24.544 34.56H36.256C39.52 34.56 42.24 33.6 44.416 31.68C46.592 29.76 47.68 27.264 47.68 24.192C47.68 21.824 46.912 20.032 45.376 18.816C43.904 17.536 41.952 16.896 39.52 16.896H28.288L24.544 34.56ZM76.9893 4.8H89.6613L83.8053 32.256H103.005L108.861 4.8H121.533L107.229 72H94.5573L100.413 44.352H81.2133L75.3573 72H62.7812L76.9893 4.8ZM127.803 30.912C129.787 21.44 133.083 14.496 137.691 10.08C142.363 5.664 148.763 3.456 156.891 3.456C160.283 3.456 163.291 4 165.915 5.088C168.539 6.112 170.747 7.584 172.539 9.504C174.331 11.36 175.675 13.568 176.571 16.128C177.531 18.688 178.01 21.44 178.01 24.384C178.01 25.472 177.947 26.56 177.819 27.648C177.755 28.736 177.595 29.824 177.339 30.912L174.171 45.888C172.187 55.36 168.859 62.304 164.187 66.72C159.579 71.136 153.211 73.344 145.083 73.344C141.691 73.344 138.683 72.832 136.059 71.808C133.435 70.72 131.227 69.248 129.435 67.392C127.643 65.472 126.267 63.264 125.307 60.768C124.411 58.208 123.963 55.424 123.963 52.416C123.963 51.328 123.995 50.24 124.059 49.152C124.187 48.064 124.379 46.976 124.635 45.888L127.803 30.912ZM146.234 61.824C148.411 61.824 150.331 61.44 151.995 60.672C153.659 59.84 155.099 58.752 156.315 57.408C157.595 56.064 158.619 54.464 159.387 52.608C160.219 50.752 160.859 48.768 161.307 46.656L164.859 30.144C165.051 29.12 165.179 28.256 165.243 27.552C165.371 26.784 165.435 26.048 165.435 25.344C165.435 22.08 164.571 19.552 162.843 17.76C161.179 15.904 158.811 14.976 155.739 14.976C153.563 14.976 151.643 15.392 149.979 16.224C148.315 16.992 146.843 18.048 145.562 19.392C144.347 20.736 143.323 22.336 142.491 24.192C141.723 26.048 141.115 28.032 140.667 30.144L137.115 46.656C136.731 48.384 136.539 49.984 136.539 51.456C136.539 54.72 137.371 57.28 139.035 59.136C140.763 60.928 143.163 61.824 146.234 61.824ZM189.944 4.8H238.328V16.896H220.472L208.76 72H196.088L207.8 16.896H189.944V4.8ZM245.365 30.912C247.349 21.44 250.645 14.496 255.253 10.08C259.925 5.664 266.325 3.456 274.453 3.456C277.845 3.456 280.853 4 283.477 5.088C286.101 6.112 288.309 7.584 290.101 9.504C291.893 11.36 293.237 13.568 294.133 16.128C295.093 18.688 295.573 21.44 295.573 24.384C295.573 25.472 295.509 26.56 295.381 27.648C295.317 28.736 295.157 29.824 294.901 30.912L291.733 45.888C289.749 55.36 286.421 62.304 281.749 66.72C277.141 71.136 270.773 73.344 262.645 73.344C259.253 73.344 256.245 72.832 253.621 71.808C250.997 70.72 248.789 69.248 246.997 67.392C245.205 65.472 243.829 63.264 242.869 60.768C241.973 58.208 241.525 55.424 241.525 52.416C241.525 51.328 241.557 50.24 241.621 49.152C241.749 48.064 241.941 46.976 242.197 45.888L245.365 30.912ZM263.797 61.824C265.973 61.824 267.893 61.44 269.557 60.672C271.221 59.84 272.661 58.752 273.877 57.408C275.157 56.064 276.181 54.464 276.949 52.608C277.781 50.752 278.421 48.768 278.869 46.656L282.421 30.144C282.613 29.12 282.741 28.256 282.805 27.552C282.933 26.784 282.997 26.048 282.997 25.344C282.997 22.08 282.133 19.552 280.405 17.76C278.741 15.904 276.373 14.976 273.301 14.976C271.125 14.976 269.205 15.392 267.541 16.224C265.877 16.992 264.405 18.048 263.125 19.392C261.909 20.736 260.885 22.336 260.053 24.192C259.285 26.048 258.677 28.032 258.229 30.144L254.677 46.656C254.293 48.384 254.101 49.984 254.101 51.456C254.101 54.72 254.933 57.28 256.597 59.136C258.325 60.928 260.725 61.824 263.797 61.824ZM322.098 38.016H351.762V39.168L344.85 72H333.33L334.962 64.512H333.234C331.954 67.008 330.034 69.12 327.474 70.848C324.914 72.512 321.458 73.344 317.106 73.344C314.61 73.344 312.306 72.928 310.194 72.096C308.082 71.328 306.258 70.144 304.722 68.544C303.186 66.944 301.97 64.992 301.074 62.688C300.242 60.32 299.826 57.6 299.826 54.528C299.826 52.032 300.146 49.28 300.786 46.272L304.146 30.528C306.13 21.248 309.65 14.432 314.706 10.08C319.826 5.664 326.45 3.456 334.578 3.456C337.778 3.456 340.626 3.968 343.122 4.992C345.682 5.952 347.826 7.296 349.554 9.024C351.282 10.752 352.594 12.768 353.49 15.072C354.45 17.312 354.93 19.712 354.93 22.272C354.93 23.168 354.866 24.128 354.738 25.152C354.61 26.112 354.45 27.008 354.258 27.84L353.97 28.992H341.298L341.586 27.84C341.778 27.072 341.906 26.4 341.97 25.824C342.034 25.248 342.066 24.672 342.066 24.096C342.066 21.408 341.234 19.328 339.57 17.856C337.906 16.32 335.474 15.552 332.274 15.552C330.482 15.552 328.786 15.84 327.186 16.416C325.586 16.992 324.082 17.92 322.674 19.2C321.33 20.416 320.146 22.048 319.122 24.096C318.098 26.08 317.266 28.544 316.626 31.488L313.554 45.696C313.298 46.848 313.138 47.808 313.074 48.576C313.01 49.344 312.978 50.112 312.978 50.88C312.978 54.336 313.874 56.928 315.666 58.656C317.458 60.384 319.89 61.248 322.962 61.248C326.738 61.248 329.81 60.256 332.178 58.272C334.61 56.224 336.178 53.504 336.882 50.112H322.098V38.016ZM401.232 72H388.368L392.688 51.84C392.816 51.2 392.88 50.688 392.88 50.304C392.88 49.216 392.528 48.352 391.824 47.712C391.12 47.008 390.032 46.656 388.56 46.656H374.64L369.264 72H356.688L370.896 4.8H394.512C397.648 4.8 400.4 5.248 402.768 6.144C405.2 6.976 407.216 8.128 408.816 9.6C410.48 11.008 411.696 12.704 412.464 14.688C413.296 16.672 413.712 18.752 413.712 20.928C413.712 25.6 412.624 29.408 410.448 32.352C408.336 35.232 405.072 37.408 400.656 38.88V40.608C402.512 40.8 403.92 41.472 404.88 42.624C405.904 43.712 406.416 45.12 406.416 46.848C406.416 47.488 406.352 48.128 406.224 48.768L401.232 72ZM377.232 34.56H388.752C392.144 34.56 394.928 33.664 397.104 31.872C399.28 30.08 400.368 27.648 400.368 24.576C400.368 22.144 399.696 20.256 398.352 18.912C397.072 17.568 395.088 16.896 392.4 16.896H380.976L377.232 34.56ZM452.717 57.6H430.541L424.397 72H410.861L440.429 4.8H463.853L465.485 72H452.909L452.717 57.6ZM435.629 45.504H452.525L452.045 11.136H450.317L435.629 45.504ZM492.202 46.656L486.826 72H474.25L488.458 4.8H512.458C515.274 4.8 517.802 5.248 520.042 6.144C522.346 7.04 524.298 8.288 525.898 9.888C527.498 11.488 528.714 13.376 529.546 15.552C530.442 17.728 530.89 20.096 530.89 22.656C530.89 26.24 530.282 29.504 529.066 32.448C527.85 35.392 526.122 37.92 523.882 40.032C521.642 42.144 518.954 43.776 515.818 44.928C512.682 46.08 509.194 46.656 505.354 46.656H492.202ZM494.794 34.56H506.506C509.77 34.56 512.49 33.6 514.666 31.68C516.842 29.76 517.93 27.264 517.93 24.192C517.93 21.824 517.162 20.032 515.626 18.816C514.154 17.536 512.202 16.896 509.77 16.896H498.538L494.794 34.56ZM547.239 4.8H559.911L554.055 32.256H573.255L579.111 4.8H591.783L577.479 72H564.807L570.663 44.352H551.463L545.607 72H533.031L547.239 4.8ZM593.541 70.848L607.557 4.8H647.397V16.896H617.637L614.373 32.256H640.389V44.352H611.781L608.517 59.904H636.837V72H593.541V70.848ZM711.103 70.848L725.119 4.8H764.959V16.896H735.199L731.935 32.256H757.951V44.352H729.343L726.079 59.904H754.399V72H711.103V70.848ZM773.916 4.8H786.78L788.988 65.664H790.716L816.54 4.8H829.788V5.952L800.796 72H777.18L773.916 4.8ZM828.666 70.848L842.682 4.8H882.522V16.896H852.762L849.498 32.256H875.514V44.352H846.906L843.642 59.904H871.962V72H828.666V70.848ZM918.359 65.664H920.087L933.047 4.8H945.143L930.839 72H907.223L911.735 11.136H910.007L897.047 72H885.047L899.255 4.8H922.871L918.359 65.664ZM954.1 4.8H1002.48V16.896H984.628L972.916 72H960.244L971.956 16.896H954.1V4.8Z"/>
</mask>
<path d="M21.952 46.656V43.656H19.5216L19.0173 46.0335L21.952 46.656ZM16.576 72V75H19.0064L19.5107 72.6225L16.576 72ZM4 72L1.06489 71.3794L0.299394 75H4V72ZM18.208 4.8V1.8H15.776L15.2729 4.17943L18.208 4.8ZM49.792 6.144L48.6778 8.92942L48.6912 8.93478L48.7047 8.94001L49.792 6.144ZM59.296 15.552L56.4938 16.6234L56.5075 16.659L56.522 16.6942L59.296 15.552ZM53.632 40.032L55.69 42.2148L53.632 40.032ZM45.568 44.928L46.6025 47.744L45.568 44.928ZM24.544 34.56L21.6092 33.938L20.8415 37.56H24.544V34.56ZM44.416 31.68L46.4009 33.9295L44.416 31.68ZM45.376 18.816L43.4075 21.0798L43.4597 21.1252L43.5139 21.1681L45.376 18.816ZM28.288 16.896V13.896H25.8572L25.3532 16.2739L28.288 16.896ZM19.0173 46.0335L13.6413 71.3775L19.5107 72.6225L24.8867 47.2785L19.0173 46.0335ZM16.576 69H4V75H16.576V69ZM6.93511 72.6206L21.1431 5.42056L15.2729 4.17943L1.06489 71.3794L6.93511 72.6206ZM18.208 7.8H42.208V1.8H18.208V7.8ZM42.208 7.8C44.7052 7.8 46.8462 8.19678 48.6778 8.92942L50.9062 3.35857C48.2578 2.29921 45.3428 1.8 42.208 1.8V7.8ZM48.7047 8.94001C50.6572 9.69931 52.2471 10.7297 53.5267 12.0093L57.7693 7.76668C55.8489 5.84624 53.5349 4.38068 50.8793 3.34798L48.7047 8.94001ZM53.5267 12.0093C54.8195 13.3022 55.8079 14.8294 56.4938 16.6234L62.0982 14.4806C61.1201 11.9226 59.6765 9.67382 57.7693 7.76668L53.5267 12.0093ZM56.522 16.6942C57.2561 18.4772 57.64 20.4532 57.64 22.656H63.64C63.64 19.7388 63.1279 16.9788 62.07 14.4098L56.522 16.6942ZM57.64 22.656C57.64 25.8961 57.0915 28.7647 56.0432 31.3027L61.5888 33.5933C62.9725 30.2433 63.64 26.5839 63.64 22.656H57.64ZM56.0432 31.3027C54.9836 33.8681 53.4942 36.0387 51.574 37.8492L55.69 42.2148C58.2498 39.8013 60.2164 36.9159 61.5888 33.5933L56.0432 31.3027ZM51.574 37.8492C49.6532 39.6602 47.3218 41.0877 44.5336 42.112L46.6025 47.744C50.0862 46.4643 53.1308 44.6278 55.69 42.2148L51.574 37.8492ZM44.5336 42.112C41.7744 43.1256 38.643 43.656 35.104 43.656V49.656C39.245 49.656 43.0896 49.0344 46.6025 47.744L44.5336 42.112ZM35.104 43.656H21.952V49.656H35.104V43.656ZM24.544 37.56H36.256V31.56H24.544V37.56ZM36.256 37.56C40.1533 37.56 43.6077 36.3941 46.4009 33.9295L42.4311 29.4305C40.8723 30.8059 38.8867 31.56 36.256 31.56V37.56ZM46.4009 33.9295C49.264 31.4033 50.68 28.0676 50.68 24.192H44.68C44.68 26.4604 43.9201 28.1167 42.4311 29.4305L46.4009 33.9295ZM50.68 24.192C50.68 21.1198 49.6445 18.3689 47.2381 16.4639L43.5139 21.1681C44.1795 21.6951 44.68 22.5282 44.68 24.192H50.68ZM47.3445 16.5522C45.2016 14.6888 42.4906 13.896 39.52 13.896V19.896C41.4134 19.896 42.6064 20.3832 43.4075 21.0798L47.3445 16.5522ZM39.52 13.896H28.288V19.896H39.52V13.896ZM25.3532 16.2739L21.6092 33.938L27.4788 35.182L31.2228 17.5181L25.3532 16.2739ZM76.9893 4.8V1.8H74.5572L74.0541 4.17943L76.9893 4.8ZM89.6612 4.8L92.5953 5.42578L93.3686 1.8H89.6612V4.8ZM83.8053 32.256L80.8712 31.6302L80.0979 35.256H83.8053V32.256ZM103.005 32.256V35.256H105.433L105.939 32.8818L103.005 32.256ZM108.861 4.8V1.8H106.434L105.927 4.17421L108.861 4.8ZM121.533 4.8L124.468 5.42458L125.239 1.8H121.533V4.8ZM107.229 72V75H109.658L110.164 72.6246L107.229 72ZM94.5573 72L91.6224 71.3784L90.8553 75H94.5573V72ZM100.413 44.352L103.348 44.9736L104.115 41.352H100.413V44.352ZM81.2132 44.352V41.352H78.7821L78.2784 43.7304L81.2132 44.352ZM75.3573 72V75H77.7884L78.2921 72.6216L75.3573 72ZM62.7812 72L59.8461 71.3794L59.0806 75H62.7812V72ZM76.9893 7.8H89.6612V1.8H76.9893V7.8ZM86.7272 4.17421L80.8712 31.6302L86.7393 32.8818L92.5953 5.42578L86.7272 4.17421ZM83.8053 35.256H103.005V29.256H83.8053V35.256ZM105.939 32.8818L111.795 5.42578L105.927 4.17421L100.071 31.6302L105.939 32.8818ZM108.861 7.8H121.533V1.8H108.861V7.8ZM118.599 4.17542L104.295 71.3754L110.164 72.6246L124.468 5.42458L118.599 4.17542ZM107.229 69H94.5573V75H107.229V69ZM97.4921 72.6216L103.348 44.9736L97.4784 43.7304L91.6224 71.3784L97.4921 72.6216ZM100.413 41.352H81.2132V47.352H100.413V41.352ZM78.2784 43.7304L72.4224 71.3784L78.2921 72.6216L84.1481 44.9736L78.2784 43.7304ZM75.3573 69H62.7812V75H75.3573V69ZM65.7164 72.6206L79.9244 5.42056L74.0541 4.17943L59.8461 71.3794L65.7164 72.6206ZM127.802 30.912L130.738 31.5329L130.739 31.527L127.802 30.912ZM137.691 10.08L135.63 7.89978L135.622 7.90688L135.615 7.91403L137.691 10.08ZM165.915 5.088L164.765 7.85922L164.795 7.87128L164.824 7.88273L165.915 5.088ZM172.538 9.504L170.345 11.551L170.363 11.5695L170.38 11.5878L172.538 9.504ZM176.57 16.128L173.739 17.119L173.75 17.1503L173.762 17.1814L176.57 16.128ZM177.818 27.648L174.839 27.2975L174.829 27.3844L174.824 27.4718L177.818 27.648ZM177.339 30.912L174.418 30.2249L174.41 30.2579L174.403 30.2911L177.339 30.912ZM174.171 45.888L171.235 45.2671L171.234 45.273L174.171 45.888ZM164.187 66.72L162.126 64.5398L162.118 64.5469L162.111 64.554L164.187 66.72ZM136.059 71.808L134.909 74.5792L134.939 74.5913L134.968 74.6027L136.059 71.808ZM129.435 67.392L127.241 69.439L127.259 69.4575L127.276 69.4758L129.435 67.392ZM125.307 60.768L122.475 61.759L122.49 61.8022L122.506 61.8449L125.307 60.768ZM124.059 49.152L121.079 48.8015L121.069 48.8884L121.064 48.9758L124.059 49.152ZM124.634 45.888L127.555 46.5751L127.563 46.5421L127.57 46.5089L124.634 45.888ZM151.995 60.672L153.252 63.3959L153.294 63.3762L153.336 63.3553L151.995 60.672ZM156.314 57.408L154.142 55.339L154.116 55.3668L154.09 55.3953L156.314 57.408ZM159.387 52.608L156.649 51.3808L156.631 51.4206L156.614 51.4609L159.387 52.608ZM161.307 46.656L158.374 46.0251L158.372 46.0335L161.307 46.656ZM164.859 30.144L167.791 30.7749L167.8 30.736L167.807 30.6969L164.859 30.144ZM165.243 27.552L162.283 27.0588L162.265 27.1691L162.255 27.2804L165.243 27.552ZM162.842 17.76L160.609 19.7626L160.645 19.8032L160.683 19.8424L162.842 17.76ZM149.979 16.224L151.236 18.9479L151.278 18.9282L151.32 18.9073L149.979 16.224ZM145.562 19.392L143.39 17.323L143.364 17.3508L143.338 17.3793L145.562 19.392ZM142.49 24.192L139.753 22.9648L139.735 23.0046L139.718 23.0449L142.49 24.192ZM140.667 30.144L143.599 30.7749L143.601 30.7665L140.667 30.144ZM137.115 46.656L140.043 47.3068L140.045 47.2969L140.047 47.2869L137.115 46.656ZM139.035 59.136L136.801 61.1386L136.837 61.1792L136.875 61.2184L139.035 59.136ZM130.739 31.527C132.659 22.3606 135.767 16.0788 139.766 12.246L135.615 7.91403C130.398 12.9132 126.914 20.5194 124.866 30.297L130.739 31.527ZM139.751 12.2602C143.73 8.49984 149.318 6.45599 156.891 6.45599V0.455994C148.207 0.455994 140.995 2.82815 135.63 7.89978L139.751 12.2602ZM156.891 6.45599C159.963 6.45599 162.569 6.94855 164.765 7.85922L167.064 2.31677C164.012 1.05144 160.602 0.455994 156.891 0.455994V6.45599ZM164.824 7.88273C167.06 8.75534 168.882 9.98316 170.345 11.551L174.732 7.45704C172.611 5.18483 170.017 3.46865 167.005 2.29326L164.824 7.88273ZM170.38 11.5878C171.856 13.1165 172.978 14.9462 173.739 17.119L179.402 15.1369C178.371 12.1898 176.805 9.60354 174.697 7.42022L170.38 11.5878ZM173.762 17.1814C174.586 19.3795 175.01 21.772 175.01 24.384H181.01C181.01 21.108 180.475 17.9965 179.379 15.0746L173.762 17.1814ZM175.01 24.384C175.01 25.354 174.953 26.325 174.839 27.2975L180.798 27.9985C180.94 26.795 181.01 25.5899 181.01 24.384H175.01ZM174.824 27.4718C174.77 28.3834 174.636 29.3005 174.418 30.2249L180.259 31.5991C180.553 30.3475 180.739 29.0886 180.813 27.8242L174.824 27.4718ZM174.403 30.2911L171.235 45.2671L177.106 46.5089L180.274 31.5329L174.403 30.2911ZM171.234 45.273C169.316 54.4309 166.18 60.7073 162.126 64.5398L166.247 68.9002C171.537 63.9007 175.057 56.2891 177.107 46.503L171.234 45.273ZM162.111 64.554C158.203 68.2995 152.658 70.344 145.083 70.344V76.344C153.763 76.344 160.954 73.9725 166.262 68.886L162.111 64.554ZM145.083 70.344C141.989 70.344 139.362 69.877 137.149 69.0133L134.968 74.6027C138.003 75.787 141.392 76.344 145.083 76.344V70.344ZM137.208 69.0368C134.925 68.0903 133.071 66.8396 131.593 65.3082L127.276 69.4758C129.382 71.6564 131.944 73.3497 134.909 74.5792L137.208 69.0368ZM131.628 65.345C130.103 63.7117 128.931 61.8345 128.107 59.6911L122.506 61.8449C123.602 64.6935 125.182 67.2323 127.241 69.439L131.628 65.345ZM128.138 59.7769C127.365 57.5683 126.963 55.1231 126.963 52.416H120.963C120.963 55.7249 121.456 58.8477 122.475 61.759L128.138 59.7769ZM126.963 52.416C126.963 51.3869 126.993 50.3576 127.053 49.3282L121.064 48.9758C120.996 50.1224 120.963 51.2691 120.963 52.416H126.963ZM127.038 49.5025C127.152 48.53 127.324 47.5544 127.555 46.5751L121.714 45.2009C121.433 46.3976 121.221 47.598 121.079 48.8015L127.038 49.5025ZM127.57 46.5089L130.738 31.5329L124.867 30.2911L121.699 45.2671L127.57 46.5089ZM146.234 64.824C148.764 64.824 151.127 64.3767 153.252 63.3959L150.737 57.9481C149.534 58.5033 148.057 58.824 146.234 58.824V64.824ZM153.336 63.3553C155.325 62.3611 157.066 61.0485 158.539 59.4207L154.09 55.3953C153.131 56.4555 151.992 57.3189 150.653 57.9887L153.336 63.3553ZM158.487 59.477C160.042 57.844 161.261 55.9245 162.159 53.7551L156.614 51.4609C155.976 53.0035 155.147 54.284 154.142 55.339L158.487 59.477ZM162.124 53.8352C163.048 51.7737 163.752 49.5858 164.241 47.2785L158.372 46.0335C157.965 47.9502 157.389 49.7303 156.649 51.3808L162.124 53.8352ZM164.239 47.2869L167.791 30.7749L161.926 29.5131L158.374 46.0251L164.239 47.2869ZM167.807 30.6969C168.009 29.6189 168.155 28.6546 168.23 27.8236L162.255 27.2804C162.202 27.8574 162.092 28.6211 161.91 29.5911L167.807 30.6969ZM168.202 28.0452C168.354 27.1311 168.435 26.2295 168.435 25.344H162.435C162.435 25.8665 162.387 26.4369 162.283 27.0588L168.202 28.0452ZM168.435 25.344C168.435 21.553 167.421 18.1859 165.002 15.6776L160.683 19.8424C161.72 20.9181 162.435 22.607 162.435 25.344H168.435ZM165.076 15.7574C162.714 13.1231 159.449 11.976 155.738 11.976V17.976C158.172 17.976 159.643 18.6849 160.609 19.7626L165.076 15.7574ZM155.738 11.976C153.176 11.976 150.783 12.4678 148.637 13.5407L151.32 18.9073C152.502 18.3162 153.949 17.976 155.738 17.976V11.976ZM148.721 13.5001C146.709 14.4288 144.928 15.7085 143.39 17.323L147.735 21.461C148.757 20.3875 149.92 19.5552 151.236 18.9479L148.721 13.5001ZM143.338 17.3793C141.887 18.9832 140.698 20.8564 139.753 22.9648L145.228 25.4192C145.947 23.8156 146.806 22.4888 147.787 21.4047L143.338 17.3793ZM139.718 23.0449C138.875 25.0825 138.215 27.2433 137.732 29.5215L143.601 30.7665C144.014 28.8207 144.57 27.0135 145.263 25.3391L139.718 23.0449ZM137.734 29.5131L134.182 46.0251L140.047 47.2869L143.599 30.7749L137.734 29.5131ZM134.186 46.0052C133.764 47.9054 133.538 49.7264 133.538 51.456H139.538C139.538 50.2416 139.697 48.8626 140.043 47.3068L134.186 46.0052ZM133.538 51.456C133.538 55.2252 134.507 58.5799 136.801 61.1386L141.268 57.1334C140.234 55.98 139.538 54.2148 139.538 51.456H133.538ZM136.875 61.2184C139.296 63.7286 142.551 64.824 146.234 64.824V58.824C143.774 58.824 142.229 58.1274 141.194 57.0536L136.875 61.2184ZM189.944 4.8V1.8H186.944V4.8H189.944ZM238.328 4.8H241.328V1.8H238.328V4.8ZM238.328 16.896V19.896H241.328V16.896H238.328ZM220.472 16.896V13.896H218.042L217.537 16.2723L220.472 16.896ZM208.76 72V75H211.189L211.694 72.6237L208.76 72ZM196.088 72L193.153 71.3763L192.383 75H196.088V72ZM207.8 16.896L210.734 17.5197L211.504 13.896H207.8V16.896ZM189.944 16.896H186.944V19.896H189.944V16.896ZM189.944 7.8H238.328V1.8H189.944V7.8ZM235.328 4.8V16.896H241.328V4.8H235.328ZM238.328 13.896H220.472V19.896H238.328V13.896ZM217.537 16.2723L205.825 71.3763L211.694 72.6237L223.406 17.5197L217.537 16.2723ZM208.76 69H196.088V75H208.76V69ZM199.022 72.6237L210.734 17.5197L204.865 16.2723L193.153 71.3763L199.022 72.6237ZM207.8 13.896H189.944V19.896H207.8V13.896ZM192.944 16.896V4.8H186.944V16.896H192.944ZM245.365 30.912L248.3 31.5329L248.301 31.527L245.365 30.912ZM255.253 10.08L253.192 7.89978L253.185 7.90688L253.177 7.91403L255.253 10.08ZM283.477 5.088L282.328 7.85922L282.357 7.87128L282.386 7.88273L283.477 5.088ZM290.101 9.504L287.908 11.551L287.925 11.5695L287.943 11.5878L290.101 9.504ZM294.133 16.128L291.301 17.119L291.312 17.1503L291.324 17.1814L294.133 16.128ZM295.381 27.648L292.402 27.2975L292.391 27.3844L292.386 27.4718L295.381 27.648ZM294.901 30.912L291.981 30.2249L291.973 30.2579L291.966 30.2911L294.901 30.912ZM291.733 45.888L288.798 45.2671L288.797 45.273L291.733 45.888ZM281.749 66.72L279.688 64.5398L279.681 64.5469L279.673 64.554L281.749 66.72ZM253.621 71.808L252.472 74.5792L252.501 74.5913L252.53 74.6027L253.621 71.808ZM246.997 67.392L244.804 69.439L244.821 69.4575L244.839 69.4758L246.997 67.392ZM242.869 60.768L240.037 61.759L240.053 61.8022L240.069 61.8449L242.869 60.768ZM241.621 49.152L238.642 48.8015L238.631 48.8884L238.626 48.9758L241.621 49.152ZM242.197 45.888L245.117 46.5751L245.125 46.5421L245.132 46.5089L242.197 45.888ZM269.557 60.672L270.814 63.3959L270.857 63.3762L270.899 63.3553L269.557 60.672ZM273.877 57.408L271.705 55.339L271.678 55.3668L271.652 55.3953L273.877 57.408ZM276.949 52.608L274.211 51.3808L274.194 51.4206L274.177 51.4609L276.949 52.608ZM278.869 46.656L275.936 46.0251L275.934 46.0335L278.869 46.656ZM282.421 30.144L285.354 30.7749L285.362 30.736L285.37 30.6969L282.421 30.144ZM282.805 27.552L279.846 27.0588L279.827 27.1691L279.817 27.2804L282.805 27.552ZM280.405 17.76L278.171 19.7626L278.208 19.8032L278.245 19.8424L280.405 17.76ZM267.541 16.224L268.798 18.9479L268.841 18.9282L268.883 18.9073L267.541 16.224ZM263.125 19.392L260.953 17.323L260.926 17.3508L260.9 17.3793L263.125 19.392ZM260.053 24.192L257.315 22.9648L257.298 23.0046L257.281 23.0449L260.053 24.192ZM258.229 30.144L261.162 30.7749L261.164 30.7665L258.229 30.144ZM254.677 46.656L257.606 47.3068L257.608 47.2969L257.61 47.2869L254.677 46.656ZM256.597 59.136L254.363 61.1386L254.4 61.1792L254.437 61.2184L256.597 59.136ZM248.301 31.527C250.221 22.3606 253.329 16.0788 257.329 12.246L253.177 7.91403C247.961 12.9132 244.477 20.5194 242.429 30.297L248.301 31.527ZM257.314 12.2602C261.292 8.49984 266.88 6.45599 274.453 6.45599V0.455994C265.77 0.455994 258.558 2.82815 253.192 7.89978L257.314 12.2602ZM274.453 6.45599C277.526 6.45599 280.132 6.94855 282.328 7.85922L284.626 2.31677C281.574 1.05144 278.164 0.455994 274.453 0.455994V6.45599ZM282.386 7.88273C284.622 8.75534 286.445 9.98316 287.908 11.551L292.294 7.45704C290.173 5.18483 287.58 3.46865 284.568 2.29326L282.386 7.88273ZM287.943 11.5878C289.419 13.1165 290.541 14.9462 291.301 17.119L296.965 15.1369C295.933 12.1898 294.367 9.60354 292.259 7.42022L287.943 11.5878ZM291.324 17.1814C292.148 19.3795 292.573 21.772 292.573 24.384H298.573C298.573 21.108 298.038 17.9965 296.942 15.0746L291.324 17.1814ZM292.573 24.384C292.573 25.354 292.516 26.325 292.402 27.2975L298.36 27.9985C298.502 26.795 298.573 25.5899 298.573 24.384H292.573ZM292.386 27.4718C292.333 28.3834 292.198 29.3005 291.981 30.2249L297.821 31.5991C298.116 30.3475 298.301 29.0886 298.376 27.8242L292.386 27.4718ZM291.966 30.2911L288.798 45.2671L294.668 46.5089L297.836 31.5329L291.966 30.2911ZM288.797 45.273C286.879 54.4309 283.743 60.7073 279.688 64.5398L283.81 68.9002C289.099 63.9007 292.62 56.2891 294.669 46.503L288.797 45.273ZM279.673 64.554C275.765 68.2995 270.22 70.344 262.645 70.344V76.344C271.326 76.344 278.517 73.9725 283.825 68.886L279.673 64.554ZM262.645 70.344C259.552 70.344 256.925 69.877 254.712 69.0133L252.53 74.6027C255.565 75.787 258.954 76.344 262.645 76.344V70.344ZM254.77 69.0368C252.487 68.0903 250.634 66.8396 249.155 65.3082L244.839 69.4758C246.944 71.6564 249.507 73.3497 252.472 74.5792L254.77 69.0368ZM249.19 65.345C247.666 63.7117 246.493 61.8345 245.669 59.6911L240.069 61.8449C241.165 64.6935 242.744 67.2323 244.804 69.439L249.19 65.345ZM245.701 59.7769C244.928 57.5683 244.525 55.1231 244.525 52.416H238.525C238.525 55.7249 239.018 58.8477 240.037 61.759L245.701 59.7769ZM244.525 52.416C244.525 51.3869 244.555 50.3576 244.616 49.3282L238.626 48.9758C238.559 50.1224 238.525 51.2691 238.525 52.416H244.525ZM244.6 49.5025C244.715 48.53 244.887 47.5544 245.117 46.5751L239.277 45.2009C238.995 46.3976 238.783 47.598 238.642 48.8015L244.6 49.5025ZM245.132 46.5089L248.3 31.5329L242.43 30.2911L239.262 45.2671L245.132 46.5089ZM263.797 64.824C266.327 64.824 268.689 64.3767 270.814 63.3959L268.3 57.9481C267.097 58.5033 265.619 58.824 263.797 58.824V64.824ZM270.899 63.3553C272.887 62.3611 274.629 61.0485 276.102 59.4207L271.652 55.3953C270.693 56.4555 269.555 57.3189 268.215 57.9887L270.899 63.3553ZM276.049 59.477C277.605 57.844 278.823 55.9245 279.721 53.7551L274.177 51.4609C273.539 53.0035 272.709 54.284 271.705 55.339L276.049 59.477ZM279.687 53.8352C280.611 51.7737 281.314 49.5858 281.804 47.2785L275.934 46.0335C275.528 47.9502 274.951 49.7303 274.211 51.3808L279.687 53.8352ZM281.802 47.2869L285.354 30.7749L279.488 29.5131L275.936 46.0251L281.802 47.2869ZM285.37 30.6969C285.572 29.6189 285.717 28.6546 285.793 27.8236L279.817 27.2804C279.765 27.8574 279.654 28.6211 279.472 29.5911L285.37 30.6969ZM285.764 28.0452C285.917 27.1311 285.997 26.2295 285.997 25.344H279.997C279.997 25.8665 279.949 26.4369 279.846 27.0588L285.764 28.0452ZM285.997 25.344C285.997 21.553 284.983 18.1859 282.565 15.6776L278.245 19.8424C279.283 20.9181 279.997 22.607 279.997 25.344H285.997ZM282.639 15.7574C280.277 13.1231 277.011 11.976 273.301 11.976V17.976C275.735 17.976 277.205 18.6849 278.171 19.7626L282.639 15.7574ZM273.301 11.976C270.738 11.976 268.345 12.4678 266.199 13.5407L268.883 18.9073C270.065 18.3162 271.512 17.976 273.301 17.976V11.976ZM266.284 13.5001C264.272 14.4288 262.49 15.7085 260.953 17.323L265.297 21.461C266.32 20.3875 267.482 19.5552 268.798 18.9479L266.284 13.5001ZM260.9 17.3793C259.449 18.9832 258.261 20.8564 257.315 22.9648L262.791 25.4192C263.509 23.8156 264.369 22.4888 265.35 21.4047L260.9 17.3793ZM257.281 23.0449C256.438 25.0825 255.778 27.2433 255.294 29.5215L261.164 30.7665C261.576 28.8207 262.132 27.0135 262.825 25.3391L257.281 23.0449ZM255.296 29.5131L251.744 46.0251L257.61 47.2869L261.162 30.7749L255.296 29.5131ZM251.748 46.0052C251.326 47.9054 251.101 49.7264 251.101 51.456H257.101C257.101 50.2416 257.26 48.8626 257.606 47.3068L251.748 46.0052ZM251.101 51.456C251.101 55.2252 252.069 58.5799 254.363 61.1386L258.831 57.1334C257.797 55.98 257.101 54.2148 257.101 51.456H251.101ZM254.437 61.2184C256.858 63.7286 260.114 64.824 263.797 64.824V58.824C261.336 58.824 259.792 58.1274 258.757 57.0536L254.437 61.2184ZM322.098 38.016V35.016H319.098V38.016H322.098ZM351.762 38.016H354.762V35.016H351.762V38.016ZM351.762 39.168L354.698 39.786L354.762 39.4804V39.168H351.762ZM344.85 72V75H347.284L347.786 72.618L344.85 72ZM333.33 72L330.399 71.3612L329.606 75H333.33V72ZM334.962 64.512L337.893 65.1508L338.687 61.512H334.962V64.512ZM333.234 64.512V61.512H331.401L330.565 63.1431L333.234 64.512ZM327.474 70.848L329.109 73.3633L329.131 73.3491L329.153 73.3345L327.474 70.848ZM310.194 72.096L311.294 69.3048L311.257 69.2902L311.219 69.2766L310.194 72.096ZM304.722 68.544L302.558 70.6216L304.722 68.544ZM301.074 62.688L298.244 63.6825L298.26 63.7292L298.278 63.7753L301.074 62.688ZM300.786 46.272L297.852 45.6459L297.852 45.6477L300.786 46.272ZM304.146 30.528L301.213 29.9008L301.212 29.9019L304.146 30.528ZM314.706 10.08L316.663 12.3537L316.666 12.3517L314.706 10.08ZM343.122 4.992L341.984 7.76751L342.026 7.7849L342.069 7.80099L343.122 4.992ZM349.554 9.024L351.676 6.90268L349.554 9.024ZM353.49 15.072L350.694 16.1593L350.713 16.2069L350.733 16.2537L353.49 15.072ZM354.738 25.152L357.712 25.5485L357.714 25.5363L357.715 25.5241L354.738 25.152ZM354.258 27.84L357.169 28.5676L357.175 28.5411L357.181 28.5146L354.258 27.84ZM353.97 28.992V31.992H356.313L356.881 29.7196L353.97 28.992ZM341.298 28.992L338.388 28.2644L337.456 31.992H341.298V28.992ZM341.586 27.84L338.676 27.1124V27.1124L341.586 27.84ZM341.97 25.824L338.989 25.4927L341.97 25.824ZM339.57 17.856L337.535 20.0604L337.559 20.0819L337.583 20.103L339.57 17.856ZM327.186 16.416L326.17 13.5933V13.5933L327.186 16.416ZM322.674 19.2L324.687 21.4246L324.692 21.4198L322.674 19.2ZM319.122 24.096L321.788 25.4719L321.797 25.4548L321.806 25.4376L319.122 24.096ZM316.626 31.488L313.695 30.8507L313.694 30.854L316.626 31.488ZM313.554 45.696L316.483 46.3468L316.485 46.3384L316.486 46.33L313.554 45.696ZM313.074 48.576L310.085 48.3269L313.074 48.576ZM315.666 58.656L317.749 56.4965L315.666 58.656ZM332.178 58.272L334.105 60.5716L334.111 60.5667L332.178 58.272ZM336.882 50.112L339.82 50.7216L340.569 47.112H336.882V50.112ZM322.098 50.112H319.098V53.112H322.098V50.112ZM322.098 41.016H351.762V35.016H322.098V41.016ZM348.762 38.016V39.168H354.762V38.016H348.762ZM348.827 38.55L341.915 71.382L347.786 72.618L354.698 39.786L348.827 38.55ZM344.85 69H333.33V75H344.85V69ZM336.261 72.6388L337.893 65.1508L332.031 63.8732L330.399 71.3612L336.261 72.6388ZM334.962 61.512H333.234V67.512H334.962V61.512ZM330.565 63.1431C329.538 65.1446 327.98 66.8872 325.796 68.3615L329.153 73.3345C332.089 71.3528 334.37 68.8714 335.904 65.881L330.565 63.1431ZM325.839 68.3327C323.932 69.5727 321.113 70.344 317.106 70.344V76.344C321.803 76.344 325.897 75.4513 329.109 73.3633L325.839 68.3327ZM317.106 70.344C314.949 70.344 313.022 69.9857 311.294 69.3048L309.095 74.8872C311.59 75.8703 314.271 76.344 317.106 76.344V70.344ZM311.219 69.2766C309.533 68.6633 308.1 67.7308 306.886 66.4664L302.558 70.6216C304.416 72.5573 306.632 73.9927 309.169 74.9154L311.219 69.2766ZM306.886 66.4664C305.654 65.1826 304.639 63.5784 303.87 61.6007L298.278 63.7753C299.301 66.4056 300.719 68.7054 302.558 70.6216L306.886 66.4664ZM303.905 61.6935C303.207 59.7075 302.826 57.3345 302.826 54.528H296.826C296.826 57.8655 297.278 60.9325 298.244 63.6825L303.905 61.6935ZM302.826 54.528C302.826 52.2835 303.115 49.7444 303.721 46.8963L297.852 45.6477C297.178 48.8156 296.826 51.7805 296.826 54.528H302.826ZM303.72 46.8981L307.08 31.1541L301.212 29.9019L297.852 45.6459L303.72 46.8981ZM307.08 31.1552C308.983 22.253 312.275 16.1309 316.663 12.3537L312.749 7.80629C307.025 12.7331 303.277 20.243 301.213 29.9008L307.08 31.1552ZM316.666 12.3517C321.136 8.49621 327.017 6.45599 334.578 6.45599V0.455994C325.883 0.455994 318.517 2.83178 312.747 7.80825L316.666 12.3517ZM334.578 6.45599C337.459 6.45599 339.91 6.9166 341.984 7.76751L344.261 2.21649C341.343 1.01939 338.097 0.455994 334.578 0.455994V6.45599ZM342.069 7.80099C344.276 8.62856 346.042 9.7543 347.433 11.1453L351.676 6.90268C349.611 4.8377 347.089 3.27544 344.176 2.18301L342.069 7.80099ZM347.433 11.1453C348.863 12.5757 349.947 14.2384 350.694 16.1593L356.286 13.9846C355.241 11.2976 353.701 8.92833 351.676 6.90268L347.433 11.1453ZM350.733 16.2537C351.525 18.1016 351.93 20.0974 351.93 22.272H357.93C357.93 19.3266 357.376 16.5224 356.248 13.8902L350.733 16.2537ZM351.93 22.272C351.93 23.0266 351.876 23.8612 351.761 24.7799L357.715 25.5241C357.856 24.3947 357.93 23.3094 357.93 22.272H351.93ZM351.765 24.7555C351.647 25.6342 351.503 26.4365 351.335 27.1654L357.181 28.5146C357.397 27.5795 357.573 26.5898 357.712 25.5485L351.765 24.7555ZM351.348 27.1124L351.06 28.2644L356.881 29.7196L357.169 28.5676L351.348 27.1124ZM353.97 25.992H341.298V31.992H353.97V25.992ZM344.209 29.7196L344.497 28.5676L338.676 27.1124L338.388 28.2644L344.209 29.7196ZM344.497 28.5676C344.71 27.7128 344.869 26.9031 344.952 26.1553L338.989 25.4927C338.944 25.8969 338.846 26.4312 338.676 27.1124L344.497 28.5676ZM344.952 26.1553C345.028 25.47 345.066 24.7834 345.066 24.096H339.066C339.066 24.5606 339.04 25.026 338.989 25.4927L344.952 26.1553ZM345.066 24.096C345.066 20.7451 343.999 17.7688 341.558 15.609L337.583 20.103C338.469 20.8872 339.066 22.0709 339.066 24.096H345.066ZM341.605 15.6516C339.194 13.4261 335.917 12.552 332.274 12.552V18.552C335.031 18.552 336.618 19.2139 337.535 20.0604L341.605 15.6516ZM332.274 12.552C330.155 12.552 328.113 12.8938 326.17 13.5933L328.202 19.2387C329.459 18.7862 330.81 18.552 332.274 18.552V12.552ZM326.17 13.5933C324.158 14.3176 322.321 15.4669 320.656 16.9802L324.692 21.4198C325.844 20.3731 327.014 19.6664 328.202 19.2387L326.17 13.5933ZM320.661 16.9754C318.979 18.4977 317.588 20.4572 316.439 22.7544L321.806 25.4376C322.705 23.6388 323.682 22.3343 324.687 21.4246L320.661 16.9754ZM316.456 22.7201C315.278 25.0027 314.372 27.733 313.695 30.8507L319.558 32.1253C320.16 29.355 320.918 27.1573 321.788 25.4719L316.456 22.7201ZM313.694 30.854L310.622 45.062L316.486 46.33L319.559 32.122L313.694 30.854ZM310.626 45.0452C310.354 46.268 310.164 47.3728 310.085 48.3269L316.064 48.8251C316.112 48.2432 316.243 47.428 316.483 46.3468L310.626 45.0452ZM310.085 48.3269C310.014 49.1774 309.978 50.0286 309.978 50.88H315.978C315.978 50.1954 316.007 49.5106 316.064 48.8251L310.085 48.3269ZM309.978 50.88C309.978 54.8267 311.007 58.3311 313.584 60.8155L317.749 56.4965C316.741 55.5249 315.978 53.8453 315.978 50.88H309.978ZM313.584 60.8155C316.059 63.2026 319.305 64.248 322.962 64.248V58.248C320.475 58.248 318.857 57.5654 317.749 56.4965L313.584 60.8155ZM322.962 64.248C327.28 64.248 331.084 63.1024 334.105 60.5716L330.252 55.9724C328.536 57.4096 326.196 58.248 322.962 58.248V64.248ZM334.111 60.5667C337.104 58.046 338.992 54.7093 339.82 50.7216L333.945 49.5023C333.364 52.2987 332.116 54.402 330.246 55.9773L334.111 60.5667ZM336.882 47.112H322.098V53.112H336.882V47.112ZM325.098 50.112V38.016H319.098V50.112H325.098ZM401.232 72V75H403.655L404.165 72.6302L401.232 72ZM388.367 72L385.434 71.3714L384.657 75H388.367V72ZM392.688 51.84L395.621 52.4686L395.625 52.4485L395.629 52.4283L392.688 51.84ZM391.824 47.712L389.702 49.8333L389.753 49.8838L389.805 49.9318L391.824 47.712ZM374.639 46.656V43.656H372.209L371.705 46.0335L374.639 46.656ZM369.263 72V75H371.694L372.198 72.6225L369.263 72ZM356.688 72L353.752 71.3794L352.987 75H356.688V72ZM370.896 4.8V1.8H368.463L367.96 4.17943L370.896 4.8ZM402.768 6.144L401.706 8.94986L401.751 8.9669L401.796 8.98249L402.768 6.144ZM408.815 9.6L406.784 11.8078L406.83 11.8499L406.878 11.8902L408.815 9.6ZM412.464 14.688L409.666 15.771L409.681 15.8098L409.697 15.8482L412.464 14.688ZM410.448 32.352L408.035 30.5688L408.028 30.5779L410.448 32.352ZM400.656 38.88L399.707 36.034L397.656 36.7177V38.88H400.656ZM400.656 40.608H397.656V43.3137L400.347 43.5921L400.656 40.608ZM404.88 42.624L402.575 44.5446L402.633 44.6141L402.695 44.6801L404.88 42.624ZM406.224 48.768L409.157 49.3982L409.161 49.3773L409.165 49.3563L406.224 48.768ZM377.232 34.56L374.297 33.938L373.529 37.56H377.232V34.56ZM397.104 31.872L399.011 34.1878L397.104 31.872ZM398.352 18.912L396.179 20.981L396.204 21.0075L396.23 21.0333L398.352 18.912ZM380.975 16.896V13.896H378.545L378.041 16.2739L380.975 16.896ZM401.232 69H388.367V75H401.232V69ZM391.301 72.6286L395.621 52.4686L389.754 51.2114L385.434 71.3714L391.301 72.6286ZM395.629 52.4283C395.773 51.7088 395.879 50.9753 395.879 50.304H389.879C389.879 50.4007 389.858 50.6912 389.746 51.2517L395.629 52.4283ZM395.879 50.304C395.879 48.5046 395.264 46.785 393.842 45.4922L389.805 49.9318C389.824 49.9484 389.83 49.9571 389.83 49.9579C389.831 49.9585 389.833 49.9615 389.837 49.9719C389.845 49.9899 389.879 50.0845 389.879 50.304H395.879ZM393.945 45.5907C392.458 44.1035 390.449 43.656 388.56 43.656V49.656C389.614 49.656 389.781 49.9125 389.702 49.8333L393.945 45.5907ZM388.56 43.656H374.639V49.656H388.56V43.656ZM371.705 46.0335L366.329 71.3775L372.198 72.6225L377.574 47.2785L371.705 46.0335ZM369.263 69H356.688V75H369.263V69ZM359.623 72.6206L373.831 5.42056L367.96 4.17943L353.752 71.3794L359.623 72.6206ZM370.896 7.8H394.512V1.8H370.896V7.8ZM394.512 7.8C397.368 7.8 399.747 8.20877 401.706 8.94986L403.829 3.33813C401.052 2.28722 397.927 1.8 394.512 1.8V7.8ZM401.796 8.98249C403.906 9.70414 405.541 10.6637 406.784 11.8078L410.847 7.3922C408.89 5.59229 406.493 4.24786 403.739 3.3055L401.796 8.98249ZM406.878 11.8902C408.168 12.9823 409.084 14.2668 409.666 15.771L415.261 13.605C414.307 11.1412 412.791 9.03368 410.753 7.30984L406.878 11.8902ZM409.697 15.8482C410.373 17.4605 410.712 19.1457 410.712 20.928H416.712C416.712 18.3583 416.218 15.8835 415.23 13.5278L409.697 15.8482ZM410.712 20.928C410.712 25.1365 409.735 28.2681 408.035 30.5688L412.86 34.1352C415.512 30.5479 416.712 26.0635 416.712 20.928H410.712ZM408.028 30.5779C406.381 32.8245 403.711 34.6991 399.707 36.034L401.604 41.726C406.432 40.1169 410.29 37.6395 412.867 34.1261L408.028 30.5779ZM397.656 38.88V40.608H403.656V38.88H397.656ZM400.347 43.5921C401.625 43.7243 402.232 44.1327 402.575 44.5446L407.184 40.7034C405.607 38.8113 403.398 37.8757 400.964 37.6239L400.347 43.5921ZM402.695 44.6801C403.113 45.1247 403.415 45.7559 403.415 46.848H409.415C409.415 44.4841 408.694 42.2993 407.064 40.5679L402.695 44.6801ZM403.415 46.848C403.415 47.2866 403.372 47.7295 403.282 48.1797L409.165 49.3563C409.331 48.5265 409.415 47.6894 409.415 46.848H403.415ZM403.29 48.1378L398.298 71.3698L404.165 72.6302L409.157 49.3982L403.29 48.1378ZM377.232 37.56H388.751V31.56H377.232V37.56ZM388.751 37.56C392.692 37.56 396.194 36.5074 399.011 34.1878L395.196 29.5562C393.661 30.8206 391.595 31.56 388.751 31.56V37.56ZM399.011 34.1878C401.946 31.7701 403.367 28.4529 403.367 24.576H397.367C397.367 26.8431 396.613 28.3899 395.196 29.5562L399.011 34.1878ZM403.367 24.576C403.367 21.5814 402.525 18.8431 400.473 16.7907L396.23 21.0333C396.866 21.6689 397.367 22.7066 397.367 24.576H403.367ZM400.524 16.843C398.464 14.6805 395.537 13.896 392.4 13.896V19.896C394.638 19.896 395.679 20.4555 396.179 20.981L400.524 16.843ZM392.4 13.896H380.975V19.896H392.4V13.896ZM378.041 16.2739L374.297 33.938L380.166 35.182L383.91 17.5181L378.041 16.2739ZM452.717 57.6L455.716 57.56L455.677 54.6H452.717V57.6ZM430.541 57.6V54.6H428.559L427.781 56.4227L430.541 57.6ZM424.397 72V75H426.378L427.156 73.1773L424.397 72ZM410.861 72L408.115 70.7918L406.263 75H410.861V72ZM440.429 4.8V1.8H438.471L437.683 3.59178L440.429 4.8ZM463.853 4.8L466.852 4.72716L466.781 1.8H463.853V4.8ZM465.485 72V75H468.559L468.484 71.9272L465.485 72ZM452.909 72L449.909 72.04L449.948 75H452.909V72ZM435.629 45.504L432.87 44.325L431.084 48.504H435.629V45.504ZM452.525 45.504V48.504H455.567L455.524 45.4621L452.525 45.504ZM452.045 11.136L455.044 11.0941L455.003 8.136H452.045V11.136ZM450.317 11.136V8.136H448.336L447.558 9.95703L450.317 11.136ZM452.717 54.6H430.541V60.6H452.717V54.6ZM427.781 56.4227L421.637 70.8227L427.156 73.1773L433.3 58.7773L427.781 56.4227ZM424.397 69H410.861V75H424.397V69ZM413.607 73.2082L443.175 6.00821L437.683 3.59178L408.115 70.7918L413.607 73.2082ZM440.429 7.8H463.853V1.8H440.429V7.8ZM460.854 4.87283L462.486 72.0728L468.484 71.9272L466.852 4.72716L460.854 4.87283ZM465.485 69H452.909V75H465.485V69ZM455.908 71.96L455.716 57.56L449.717 57.64L449.909 72.04L455.908 71.96ZM435.629 48.504H452.525V42.504H435.629V48.504ZM455.524 45.4621L455.044 11.0941L449.045 11.1779L449.525 45.5459L455.524 45.4621ZM452.045 8.136H450.317V14.136H452.045V8.136ZM447.558 9.95703L432.87 44.325L438.387 46.683L453.075 12.315L447.558 9.95703ZM492.202 46.656V43.656H489.772L489.267 46.0335L492.202 46.656ZM486.826 72V75H489.256L489.761 72.6225L486.826 72ZM474.25 72L471.315 71.3794L470.549 75H474.25V72ZM488.458 4.8V1.8H486.026L485.523 4.17943L488.458 4.8ZM520.042 6.144L518.928 8.92942L518.941 8.93478L518.955 8.94001L520.042 6.144ZM529.546 15.552L526.744 16.6234L526.757 16.659L526.772 16.6942L529.546 15.552ZM523.882 40.032L525.94 42.2148L523.882 40.032ZM515.818 44.928L516.852 47.744L515.818 44.928ZM494.794 34.56L491.859 33.938L491.091 37.56H494.794V34.56ZM514.666 31.68L516.651 33.9295L514.666 31.68ZM515.626 18.816L513.657 21.0798L513.71 21.1252L513.764 21.1681L515.626 18.816ZM498.538 16.896V13.896H496.107L495.603 16.2739L498.538 16.896ZM489.267 46.0335L483.891 71.3775L489.761 72.6225L495.137 47.2785L489.267 46.0335ZM486.826 69H474.25V75H486.826V69ZM477.185 72.6206L491.393 5.42056L485.523 4.17943L471.315 71.3794L477.185 72.6206ZM488.458 7.8H512.458V1.8H488.458V7.8ZM512.458 7.8C514.955 7.8 517.096 8.19678 518.928 8.92942L521.156 3.35857C518.508 2.29921 515.593 1.8 512.458 1.8V7.8ZM518.955 8.94001C520.907 9.69931 522.497 10.7297 523.777 12.0093L528.019 7.76668C526.099 5.84624 523.785 4.38068 521.129 3.34798L518.955 8.94001ZM523.777 12.0093C525.07 13.3022 526.058 14.8294 526.744 16.6234L532.348 14.4806C531.37 11.9226 529.926 9.67382 528.019 7.76668L523.777 12.0093ZM526.772 16.6942C527.506 18.4772 527.89 20.4532 527.89 22.656H533.89C533.89 19.7388 533.378 16.9788 532.32 14.4098L526.772 16.6942ZM527.89 22.656C527.89 25.8961 527.342 28.7647 526.293 31.3027L531.839 33.5933C533.222 30.2433 533.89 26.5839 533.89 22.656H527.89ZM526.293 31.3027C525.234 33.8681 523.744 36.0387 521.824 37.8492L525.94 42.2148C528.5 39.8013 530.466 36.9159 531.839 33.5933L526.293 31.3027ZM521.824 37.8492C519.903 39.6602 517.572 41.0877 514.784 42.112L516.852 47.744C520.336 46.4643 523.381 44.6278 525.94 42.2148L521.824 37.8492ZM514.784 42.112C512.024 43.1256 508.893 43.656 505.354 43.656V49.656C509.495 49.656 513.34 49.0344 516.852 47.744L514.784 42.112ZM505.354 43.656H492.202V49.656H505.354V43.656ZM494.794 37.56H506.506V31.56H494.794V37.56ZM506.506 37.56C510.403 37.56 513.858 36.3941 516.651 33.9295L512.681 29.4305C511.122 30.8059 509.137 31.56 506.506 31.56V37.56ZM516.651 33.9295C519.514 31.4033 520.93 28.0676 520.93 24.192H514.93C514.93 26.4604 514.17 28.1167 512.681 29.4305L516.651 33.9295ZM520.93 24.192C520.93 21.1198 519.894 18.3689 517.488 16.4639L513.764 21.1681C514.43 21.6951 514.93 22.5282 514.93 24.192H520.93ZM517.595 16.5522C515.452 14.6888 512.741 13.896 509.77 13.896V19.896C511.663 19.896 512.856 20.3832 513.657 21.0798L517.595 16.5522ZM509.77 13.896H498.538V19.896H509.77V13.896ZM495.603 16.2739L491.859 33.938L497.729 35.182L501.473 17.5181L495.603 16.2739ZM547.239 4.8V1.8H544.807L544.304 4.17943L547.239 4.8ZM559.911 4.8L562.845 5.42578L563.619 1.8H559.911V4.8ZM554.055 32.256L551.121 31.6302L550.348 35.256H554.055V32.256ZM573.255 32.256V35.256H575.683L576.189 32.8818L573.255 32.256ZM579.111 4.8V1.8H576.684L576.177 4.17421L579.111 4.8ZM591.783 4.8L594.718 5.42458L595.489 1.8H591.783V4.8ZM577.479 72V75H579.908L580.414 72.6246L577.479 72ZM564.807 72L561.872 71.3784L561.105 75H564.807V72ZM570.663 44.352L573.598 44.9736L574.365 41.352H570.663V44.352ZM551.463 44.352V41.352H549.032L548.528 43.7304L551.463 44.352ZM545.607 72V75H548.038L548.542 72.6216L545.607 72ZM533.031 72L530.096 71.3794L529.331 75H533.031V72ZM547.239 7.8H559.911V1.8H547.239V7.8ZM556.977 4.17421L551.121 31.6302L556.989 32.8818L562.845 5.42578L556.977 4.17421ZM554.055 35.256H573.255V29.256H554.055V35.256ZM576.189 32.8818L582.045 5.42578L576.177 4.17421L570.321 31.6302L576.189 32.8818ZM579.111 7.8H591.783V1.8H579.111V7.8ZM588.849 4.17542L574.545 71.3754L580.414 72.6246L594.718 5.42458L588.849 4.17542ZM577.479 69H564.807V75H577.479V69ZM567.742 72.6216L573.598 44.9736L567.728 43.7304L561.872 71.3784L567.742 72.6216ZM570.663 41.352H551.463V47.352H570.663V41.352ZM548.528 43.7304L542.672 71.3784L548.542 72.6216L554.398 44.9736L548.528 43.7304ZM545.607 69H533.031V75H545.607V69ZM535.966 72.6206L550.174 5.42056L544.304 4.17943L530.096 71.3794L535.966 72.6206ZM593.541 70.848L590.606 70.2252L590.541 70.5332V70.848H593.541ZM607.557 4.8V1.8H605.126L604.622 4.17723L607.557 4.8ZM647.396 4.8H650.396V1.8H647.396V4.8ZM647.396 16.896V19.896H650.396V16.896H647.396ZM617.636 16.896V13.896H615.207L614.702 16.2724L617.636 16.896ZM614.372 32.256L611.438 31.6324L610.668 35.256H614.372V32.256ZM640.388 32.256H643.388V29.256H640.388V32.256ZM640.388 44.352V47.352H643.388V44.352H640.388ZM611.781 44.352V41.352H609.345L608.844 43.7358L611.781 44.352ZM608.516 59.904L605.58 59.2878L604.822 62.904H608.516V59.904ZM636.836 59.904H639.836V56.904H636.836V59.904ZM636.836 72V75H639.836V72H636.836ZM593.541 72H590.541V75H593.541V72ZM596.475 71.4708L610.491 5.42276L604.622 4.17723L590.606 70.2252L596.475 71.4708ZM607.557 7.8H647.396V1.8H607.557V7.8ZM644.396 4.8V16.896H650.396V4.8H644.396ZM647.396 13.896H617.636V19.896H647.396V13.896ZM614.702 16.2724L611.438 31.6324L617.307 32.8796L620.571 17.5196L614.702 16.2724ZM614.372 35.256H640.388V29.256H614.372V35.256ZM637.388 32.256V44.352H643.388V32.256H637.388ZM640.388 41.352H611.781V47.352H640.388V41.352ZM608.844 43.7358L605.58 59.2878L611.453 60.5202L614.717 44.9682L608.844 43.7358ZM608.516 62.904H636.836V56.904H608.516V62.904ZM633.836 59.904V72H639.836V59.904H633.836ZM636.836 69H593.541V75H636.836V69ZM596.541 72V70.848H590.541V72H596.541ZM711.103 70.848L708.168 70.2252L708.103 70.5332V70.848H711.103ZM725.119 4.8V1.8H722.689L722.184 4.17723L725.119 4.8ZM764.959 4.8H767.959V1.8H764.959V4.8ZM764.959 16.896V19.896H767.959V16.896H764.959ZM735.199 16.896V13.896H732.77L732.265 16.2724L735.199 16.896ZM731.935 32.256L729.001 31.6324L728.231 35.256H731.935V32.256ZM757.951 32.256H760.951V29.256H757.951V32.256ZM757.951 44.352V47.352H760.951V44.352H757.951ZM729.343 44.352V41.352H726.907L726.407 43.7358L729.343 44.352ZM726.079 59.904L723.143 59.2878L722.384 62.904H726.079V59.904ZM754.399 59.904H757.399V56.904H754.399V59.904ZM754.399 72V75H757.399V72H754.399ZM711.103 72H708.103V75H711.103V72ZM714.038 71.4708L728.054 5.42276L722.184 4.17723L708.168 70.2252L714.038 71.4708ZM725.119 7.8H764.959V1.8H725.119V7.8ZM761.959 4.8V16.896H767.959V4.8H761.959ZM764.959 13.896H735.199V19.896H764.959V13.896ZM732.265 16.2724L729.001 31.6324L734.87 32.8796L738.133 17.5196L732.265 16.2724ZM731.935 35.256H757.951V29.256H731.935V35.256ZM754.951 32.256V44.352H760.951V32.256H754.951ZM757.951 41.352H729.343V47.352H757.951V41.352ZM726.407 43.7358L723.143 59.2878L729.015 60.5202L732.279 44.9682L726.407 43.7358ZM726.079 62.904H754.399V56.904H726.079V62.904ZM751.399 59.904V72H757.399V59.904H751.399ZM754.399 69H711.103V75H754.399V69ZM714.103 72V70.848H708.103V72H714.103ZM773.916 4.8V1.8H770.767L770.92 4.94554L773.916 4.8ZM786.78 4.8L789.778 4.69123L789.673 1.8H786.78V4.8ZM788.988 65.664L785.99 65.7728L786.095 68.664H788.988V65.664ZM790.716 65.664V68.664H792.702L793.478 66.8358L790.716 65.664ZM816.54 4.8V1.8H814.554L813.779 3.62823L816.54 4.8ZM829.788 4.8H832.788V1.8H829.788V4.8ZM829.788 5.952L832.535 7.15781L832.788 6.58144V5.952H829.788ZM800.796 72V75H802.756L803.543 73.2058L800.796 72ZM777.18 72L774.184 72.1455L774.322 75H777.18V72ZM773.916 7.8H786.78V1.8H773.916V7.8ZM783.782 4.90876L785.99 65.7728L791.986 65.5552L789.778 4.69123L783.782 4.90876ZM788.988 68.664H790.716V62.664H788.988V68.664ZM793.478 66.8358L819.302 5.97176L813.779 3.62823L787.955 64.4922L793.478 66.8358ZM816.54 7.8H829.788V1.8H816.54V7.8ZM826.788 4.8V5.952H832.788V4.8H826.788ZM827.041 4.74619L798.049 70.7942L803.543 73.2058L832.535 7.15781L827.041 4.74619ZM800.796 69H777.18V75H800.796V69ZM780.177 71.8545L776.913 4.65445L770.92 4.94554L774.184 72.1455L780.177 71.8545ZM828.666 70.848L825.731 70.2252L825.666 70.5332V70.848H828.666ZM842.682 4.8V1.8H840.251L839.747 4.17723L842.682 4.8ZM882.521 4.8H885.521V1.8H882.521V4.8ZM882.521 16.896V19.896H885.521V16.896H882.521ZM852.761 16.896V13.896H850.332L849.827 16.2724L852.761 16.896ZM849.497 32.256L846.563 31.6324L845.793 35.256H849.497V32.256ZM875.513 32.256H878.513V29.256H875.513V32.256ZM875.513 44.352V47.352H878.513V44.352H875.513ZM846.906 44.352V41.352H844.47L843.969 43.7358L846.906 44.352ZM843.641 59.904L840.705 59.2878L839.947 62.904H843.641V59.904ZM871.961 59.904H874.961V56.904H871.961V59.904ZM871.961 72V75H874.961V72H871.961ZM828.666 72H825.666V75H828.666V72ZM831.6 71.4708L845.616 5.42276L839.747 4.17723L825.731 70.2252L831.6 71.4708ZM842.682 7.8H882.521V1.8H842.682V7.8ZM879.521 4.8V16.896H885.521V4.8H879.521ZM882.521 13.896H852.761V19.896H882.521V13.896ZM849.827 16.2724L846.563 31.6324L852.432 32.8796L855.696 17.5196L849.827 16.2724ZM849.497 35.256H875.513V29.256H849.497V35.256ZM872.513 32.256V44.352H878.513V32.256H872.513ZM875.513 41.352H846.906V47.352H875.513V41.352ZM843.969 43.7358L840.705 59.2878L846.578 60.5202L849.842 44.9682L843.969 43.7358ZM843.641 62.904H871.961V56.904H843.641V62.904ZM868.961 59.904V72H874.961V59.904H868.961ZM871.961 69H828.666V75H871.961V69ZM831.666 72V70.848H825.666V72H831.666ZM918.359 65.664L915.367 65.4422L915.128 68.664H918.359V65.664ZM920.087 65.664V68.664H922.515L923.021 66.2888L920.087 65.664ZM933.047 4.8V1.8H930.618L930.113 4.1752L933.047 4.8ZM945.143 4.8L948.077 5.42458L948.849 1.8H945.143V4.8ZM930.839 72V75H933.267L933.773 72.6246L930.839 72ZM907.223 72L904.231 71.7782L903.992 75H907.223V72ZM911.735 11.136L914.727 11.3578L914.965 8.136H911.735V11.136ZM910.007 11.136V8.136H907.578L907.073 10.5112L910.007 11.136ZM897.047 72V75H899.475L899.981 72.6248L897.047 72ZM885.047 72L882.112 71.3794L881.346 75H885.047V72ZM899.255 4.8V1.8H896.823L896.32 4.17943L899.255 4.8ZM922.871 4.8L925.863 5.02179L926.101 1.8H922.871V4.8ZM918.359 68.664H920.087V62.664H918.359V68.664ZM923.021 66.2888L935.981 5.42479L930.113 4.1752L917.153 65.0392L923.021 66.2888ZM933.047 7.8H945.143V1.8H933.047V7.8ZM942.208 4.17542L927.904 71.3754L933.773 72.6246L948.077 5.42458L942.208 4.17542ZM930.839 69H907.223V75H930.839V69ZM910.215 72.2218L914.727 11.3578L908.743 10.9142L904.231 71.7782L910.215 72.2218ZM911.735 8.136H910.007V14.136H911.735V8.136ZM907.073 10.5112L894.113 71.3752L899.981 72.6248L912.941 11.7608L907.073 10.5112ZM897.047 69H885.047V75H897.047V69ZM887.982 72.6206L902.19 5.42056L896.32 4.17943L882.112 71.3794L887.982 72.6206ZM899.255 7.8H922.871V1.8H899.255V7.8ZM919.879 4.57821L915.367 65.4422L921.351 65.8858L925.863 5.02179L919.879 4.57821ZM954.1 4.8V1.8H951.1V4.8H954.1ZM1002.48 4.8H1005.48V1.8H1002.48V4.8ZM1002.48 16.896V19.896H1005.48V16.896H1002.48ZM984.628 16.896V13.896H982.199L981.694 16.2723L984.628 16.896ZM972.916 72V75H975.345L975.85 72.6237L972.916 72ZM960.244 72L957.31 71.3763L956.539 75H960.244V72ZM971.956 16.896L974.89 17.5197L975.661 13.896H971.956V16.896ZM954.1 16.896H951.1V19.896H954.1V16.896ZM954.1 7.8H1002.48V1.8H954.1V7.8ZM999.484 4.8V16.896H1005.48V4.8H999.484ZM1002.48 13.896H984.628V19.896H1002.48V13.896ZM981.694 16.2723L969.982 71.3763L975.85 72.6237L987.562 17.5197L981.694 16.2723ZM972.916 69H960.244V75H972.916V69ZM963.178 72.6237L974.89 17.5197L969.022 16.2723L957.31 71.3763L963.178 72.6237ZM971.956 13.896H954.1V19.896H971.956V13.896ZM957.1 16.896V4.8H951.1V16.896H957.1Z" fill="white" mask="url(#path-1-outside-1_85826_554)"/>
</svg>
